<svg width="22" height="22" viewBox="0 0 22 22" fill="none" xmlns="http://www.w3.org/2000/svg">
<path d="M22 11C22 17.0751 17.0751 22 11 22C4.92487 22 0 17.0751 0 11C0 4.92487 4.92487 0 11 0C17.0751 0 22 4.92487 22 11Z" fill="#CCCCCC"/>
<path fill-rule="evenodd" clip-rule="evenodd" d="M11 21C16.5228 21 21 16.5228 21 11C21 5.47715 16.5228 1 11 1C5.47715 1 1 5.47715 1 11C1 16.5228 5.47715 21 11 21ZM11 22C17.0751 22 22 17.0751 22 11C22 4.92487 17.0751 0 11 0C4.92487 0 0 4.92487 0 11C0 17.0751 4.92487 22 11 22Z" fill="black"/>
<g clip-path="url(#clip0_106_5)">
<path d="M9.43 12.62C9.41 11.2 9.67 10.67 10.85 9.66C11.62 9 11.83 8.68 11.83 8.14C11.83 7.6 11.54 7.29 10.96 7.29C10.29 7.29 9.97 7.67 9.62 8.92L7 8.49C7.14 7.59 7.5 6.78 8.01 6.17C8.65 5.4 9.68 5 11 5C13.4 5 14.65 6.14 14.65 8.3C14.65 9.53 14.27 10.16 12.7 11.41C11.91 12.03 11.64 12.43 11.64 12.99V13.28H9.43V12.62ZM9.19 14.17H11.9V16.63H9.19V14.17Z" fill="black"/>
</g>
<defs>
<clipPath id="clip0_106_5">
<rect width="7.65" height="11.64" fill="white" transform="translate(7 5)"/>
</clipPath>
</defs>
</svg>
