<?xml version="1.0" encoding="UTF-8"?><svg id="_レイヤー_2" xmlns="http://www.w3.org/2000/svg" viewBox="0 0 20 20"><defs><style>.cls-1{fill:#ccc;}</style></defs><g id="_レイヤー_1-2"><path class="cls-1" d="M10,19.5C4.76,19.5.5,15.24.5,10S4.76.5,10,.5s9.5,4.26,9.5,9.5-4.26,9.5-9.5,9.5Z"/><path d="M10,1c4.96,0,9,4.04,9,9s-4.04,9-9,9S1,14.96,1,10,5.04,1,10,1M10,0C4.48,0,0,4.48,0,10s4.48,10,10,10,10-4.48,10-10S15.52,0,10,0h0Z"/><path d="M8.61,11.8c-.02-1.42.24-1.95,1.42-2.96.77-.66.98-.98.98-1.52s-.29-.85-.87-.85c-.67,0-.99.38-1.34,1.63l-2.62-.43c.14-.9.5-1.71,1.01-2.32.64-.77,1.67-1.17,2.99-1.17,2.4,0,3.65,1.14,3.65,3.3,0,1.23-.38,1.86-1.95,3.11-.79.62-1.06,1.02-1.06,1.58v.29h-2.21v-.66ZM8.37,13.35h2.71v2.46h-2.71v-2.46Z"/></g></svg>