<svg xmlns="http://www.w3.org/2000/svg" width="20" height="20" viewBox="0 0 20 20"><g transform="translate(-368 -165)"><circle cx="10" cy="10" r="10" transform="translate(368 165)" fill="#ccc"/><path d="M10,1a9,9,0,1,0,9,9,9.01,9.01,0,0,0-9-9m0-1A10,10,0,1,1,0,10,10,10,0,0,1,10,0Z" transform="translate(368 165)"/><path d="M3.408-3.36H5.616v-.288c0-.56.272-.96,1.056-1.584C8.24-6.48,8.624-7.1,8.624-8.336c0-2.16-1.248-3.3-3.648-3.3a3.719,3.719,0,0,0-2.992,1.168A4.8,4.8,0,0,0,.976-8.144L3.6-7.712c.352-1.248.672-1.632,1.344-1.632a.759.759,0,0,1,.864.848c0,.544-.208.864-.976,1.52a3.084,3.084,0,0,0-1.424,2.96ZM3.168,0h2.7V-2.464h-2.7Z" transform="translate(373 181)"/></g></svg>